<svg width="24" height="24" viewBox="0 0 24 24" fill="#fff" xmlns="http://www.w3.org/2000/svg">
<g clip-path="url(#clip0_4418_8017)">
<path opacity="0.4" d="M17.74 7.57031C17.75 7.64031 17.75 7.72031 17.74 7.79031C17.74 7.72031 17.73 7.65031 17.73 7.58031L17.74 7.57031Z"/>
<path d="M17.2799 6.56L3.82988 20.01C2.42988 19.12 1.87988 17.53 1.87988 16V8C1.87988 4.58 3.20988 3.25 6.62988 3.25H12.6299C15.5199 3.25 16.9099 4.2 17.2799 6.56Z"/>
<path d="M21.4 2.22988C21.1 1.92988 20.61 1.92988 20.31 2.22988L1.85 20.6899C1.55 20.9899 1.55 21.4799 1.85 21.7799C2 21.9199 2.2 21.9999 2.39 21.9999C2.59 21.9999 2.78 21.9199 2.93 21.7699L21.4 3.30988C21.7 3.00988 21.7 2.52988 21.4 2.22988Z"/>
<path d="M22.3799 8.38047V15.6205C22.3799 17.0505 21.6799 17.6205 21.2799 17.8305C21.0899 17.9305 20.7899 18.0405 20.4199 18.0405C19.9899 18.0405 19.4599 17.9005 18.8399 17.4605L17.3599 16.4205C17.2899 18.6305 16.5899 19.8905 14.9999 20.4205C14.3599 20.6505 13.5699 20.7505 12.6199 20.7505H6.61991C6.37991 20.7505 6.14991 20.7405 5.90991 20.7105L14.9999 11.6305L20.6499 5.98047C20.9099 6.00047 21.1199 6.08047 21.2799 6.17047C21.6799 6.38047 22.3799 6.95047 22.3799 8.38047Z"/>
</g>
<defs>
<clipPath id="clip0_4418_8017">
<rect width="24" height="24" fill="white"/>
</clipPath>
</defs>
</svg>